<?xml version="1.0" encoding="utf-8"?>
<!-- Generator: Adobe Illustrator 16.0.0, SVG Export Plug-In . SVG Version: 6.00 Build 0)  -->
<!DOCTYPE svg PUBLIC "-//W3C//DTD SVG 1.1//EN" "http://www.w3.org/Graphics/SVG/1.1/DTD/svg11.dtd">
<svg version="1.1" id="Layer_1" xmlns="http://www.w3.org/2000/svg" xmlns:xlink="http://www.w3.org/1999/xlink" x="0px" y="0px"
	  viewBox="8.3 -0.2 82.9 100.2" enable-background="new 8.3 -0.2 82.9 100.2" xml:space="preserve"
	>
<path d="M22.4,37.4l1.4-1.8c0.3-0.3,0.3-0.8,0.1-1.2c-0.1-0.3-0.4-0.5-0.6-0.6l-1.3-1.3l-0.3-0.2v-1.1v-1.4h-3.6V21h0l0.6-0.4v-1
	h-1.1v-5.9h-0.4v-2.9h-0.5V6V5.9V1h-1.1v5V6v4.8h-0.5v2.9h-0.4v5.9h-1.1v1l0.6,0.4h0v8.6h-3.6v1.4v1.1l-0.3,0.3l-1.3,1.3
	c-0.3,0.1-0.5,0.3-0.6,0.6c-0.2,0.4-0.1,0.9,0.1,1.2l1.4,1.8v0c0,0,0,0,0,0c-0.5,0.3-0.8,0.8-0.8,1.4c0,0.9,0.8,1.7,1.7,1.7h3.2
	L11.5,99h8.9l-2.1-58.6h3.1c0.9,0,1.7-0.7,1.7-1.7C23.2,38.2,22.8,37.7,22.4,37.4C22.4,37.4,22.4,37.4,22.4,37.4L22.4,37.4
	L22.4,37.4z"/>
<text transform="matrix(1 0 0 1 20.625 80.25)"><tspan x="0" y="0" font-family="'FenwickOutline-Regular'" font-size="15">top 5</tspan><tspan x="0" y="18" font-family="'FenwickOutline-Regular'" font-size="15">toronto</tspan></text>
</svg>
